<?xml version="1.0" encoding="utf-8"?>
<!-- Generator: Adobe Illustrator 16.0.0, SVG Export Plug-In . SVG Version: 6.00 Build 0)  -->
<!DOCTYPE svg PUBLIC "-//W3C//DTD SVG 1.1//EN" "http://www.w3.org/Graphics/SVG/1.1/DTD/svg11.dtd">
<svg version="1.1" id="Layer_1" xmlns="http://www.w3.org/2000/svg" xmlns:xlink="http://www.w3.org/1999/xlink" x="0px" y="0px"
	 width="239px" height="150px" viewBox="0 0 239 150" enable-background="new 0 0 239 150" xml:space="preserve">
<g id="BANK_1_">
	<g id="Rounded_Rectangle_1_copy_7">
		<g>
			<path fill="#654E3C" d="M220.904,0H18.095C8.102,0,0,8.102,0,18.096v113.808C0,141.898,8.102,150,18.095,150h202.809
				c9.994,0,18.096-8.102,18.096-18.096V18.096C239,8.102,230.898,0,220.904,0z"/>
		</g>
	</g>
	<g id="_x31_3_Transfeencia_bancaria">
		<g>
			<path fill="#FFFFFF" d="M173.378,123.641H66.308c-3.226,0-5.16,2.59-5.16,5.178c0,3.238,2.58,5.181,5.16,5.181h106.424
				c3.226,0,5.16-2.591,5.16-5.181C178.537,126.229,175.957,123.641,173.378,123.641z M68.242,115.223c0,3.237,2.58,5.18,5.16,5.18
				h92.879c3.227,0,5.162-2.59,5.162-5.18c0-3.236-2.582-5.179-5.162-5.179h-1.289v-47.91h1.289c1.291,0,2.58-1.295,2.58-2.59
				c0-1.294-1.289-2.589-2.58-2.589H73.402c-1.884,0-2.528,1.103-2.528,2.397s1.238,2.134,2.528,2.134h1.29l0.009,48.558h-1.299
				C70.177,110.044,68.242,112.635,68.242,115.223z M138.547,62.134h16.125v47.91h-16.125V62.134z M111.458,62.134h16.125v47.91
				h-16.125V62.134z M85.012,62.134h16.125v47.91H85.012V62.134z M66.308,51.775h106.424c3.226,0,5.16-2.591,5.16-5.18
				c0-2.59-1.289-4.532-3.871-5.18l-52.244-23.954c-1.291-0.648-3.224-0.648-4.514,0l-52.89,23.954
				c-2.581,1.295-3.87,3.885-3.225,5.827C61.792,49.833,63.728,51.775,66.308,51.775z"/>
		</g>
	</g>
</g>
</svg>
