<svg width="25" height="25" viewBox="0 0 25 25" fill="none" xmlns="http://www.w3.org/2000/svg">
<path d="M22.5002 0.125C23.7427 0.125 24.75 1.13233 24.75 2.37478V22.6252C24.75 22.9207 24.6918 23.2132 24.5787 23.4862C24.4657 23.7591 24.3 24.0071 24.0911 24.2161C23.8821 24.425 23.6341 24.5907 23.3612 24.7037C23.0882 24.8168 22.7957 24.875 22.5002 24.875H2.24977C1.95433 24.875 1.66178 24.8168 1.38882 24.7037C1.11587 24.5907 0.867855 24.425 0.658944 24.2161C0.450033 24.0071 0.284316 23.7591 0.171254 23.4862C0.0581922 23.2132 0 22.9207 0 22.6252L0 2.37478C0 1.13233 1.00732 0.125 2.24977 0.125H22.5002ZM12.7438 6.20112C12.6329 6.20112 12.5232 6.22296 12.4208 6.26537C12.3184 6.30778 12.2254 6.36995 12.147 6.44832C12.0686 6.52669 12.0065 6.61973 11.964 6.72213C11.9216 6.82452 11.8998 6.93427 11.8998 7.0451L11.8986 11.6337H7.31239C7.11031 11.6339 6.91499 11.7065 6.76194 11.8385C6.60888 11.9704 6.50824 12.1529 6.47831 12.3527L6.46841 12.4765C6.46841 12.9443 6.84709 13.3217 7.31239 13.3217L11.8986 13.3205V17.9079C11.8986 18.3323 12.2116 18.6826 12.6188 18.7432L12.7425 18.7518C12.9664 18.7518 13.181 18.6629 13.3393 18.5047C13.4976 18.3464 13.5865 18.1317 13.5865 17.9079V13.3205H18.1739C18.376 13.3207 18.5715 13.2483 18.7248 13.1166C18.8781 12.9849 18.979 12.8025 19.0092 12.6027L19.0179 12.4777C19.0179 12.2539 18.929 12.0392 18.7707 11.8809C18.6124 11.7227 18.3978 11.6337 18.1739 11.6337H13.5878V7.0451C13.5877 6.84321 13.5152 6.64804 13.3835 6.49501C13.2518 6.34197 13.0696 6.24122 12.87 6.21103L12.7438 6.20112Z" fill="#555555"/>
</svg>
