<?xml version="1.0" encoding="utf-8"?>
<!-- Generator: Adobe Illustrator 16.0.0, SVG Export Plug-In . SVG Version: 6.00 Build 0)  -->
<!DOCTYPE svg PUBLIC "-//W3C//DTD SVG 1.1//EN" "http://www.w3.org/Graphics/SVG/1.1/DTD/svg11.dtd">
<svg version="1.1" id="tron_1_" xmlns="http://www.w3.org/2000/svg" xmlns:xlink="http://www.w3.org/1999/xlink" x="0px" y="0px"
	 width="239px" height="150px" viewBox="0 0 239 150" enable-background="new 0 0 239 150" xml:space="preserve">
<g id="Rounded_Rectangle_1_copy_8">
	<g>
		<path fill="#EB0029" d="M220.904,0H18.095C8.102,0,0,8.102,0,18.096v113.809C0,141.898,8.102,150,18.095,150h202.809
			c9.994,0,18.096-8.102,18.096-18.096V18.096C239,8.102,230.898,0,220.904,0z"/>
	</g>
</g>
<g id="Shape_7_copy_10">
	<g>
		<path fill-rule="evenodd" clip-rule="evenodd" fill="#FFFFFF" d="M123.307,111.883l33.32-40.579l-29.059,5.26L123.307,111.883z
			 M94.582,50.69l24.315,61.161l4.503-37.257L94.582,50.69z M142.922,55.919l-45.204-8.312l27.663,22.925L142.922,55.919z
			 M131.081,71.48l26.245-4.75l-9.6-9.113L131.081,71.48z M133.932,18.966c-30.861-7.715-62.127,11.12-69.82,42.071
			c-7.696,30.938,11.086,62.276,41.945,69.995c30.871,7.719,62.135-11.111,69.832-42.059
			C183.584,58.023,164.8,26.684,133.932,18.966z M119.012,123.996L86.003,41.004l62.723,11.53l16.27,15.468L119.012,123.996z"/>
	</g>
</g>
</svg>
